<?xml version="1.0" standalone="no"?>
<!DOCTYPE svg PUBLIC "-//W3C//DTD SVG 20010904//EN"
 "http://www.w3.org/TR/2001/REC-SVG-20010904/DTD/svg10.dtd">
<svg version="1.0" xmlns="http://www.w3.org/2000/svg"
 width="960.000000pt" height="960.000000pt" viewBox="0 0 960.000000 960.000000"
 preserveAspectRatio="xMidYMid meet">
<metadata>
Created by potrace 1.16, written by Peter Selinger 2001-2019
</metadata>
<g transform="translate(0.000000,960.000000) scale(0.100000,-0.100000)"
fill="#000000" stroke="none">
<path d="M9499 7941 c-7 -11 -19 -16 -31 -13 -10 2 -18 0 -18 -6 0 -6 -9 -8
-20 -5 -11 3 -20 1 -20 -4 0 -13 -77 -47 -101 -46 -11 1 -25 -7 -32 -18 -6
-10 -17 -19 -24 -19 -7 0 -13 -7 -13 -15 0 -9 9 -15 22 -15 29 0 14 -13 -20
-18 -15 -2 -28 -7 -30 -13 -2 -5 -9 -9 -15 -9 -13 0 -57 -88 -57 -114 0 -13
-4 -15 -19 -6 -35 18 -95 7 -158 -28 -12 -6 -43 -13 -70 -14 -26 -1 -54 -7
-61 -15 -7 -7 -21 -13 -30 -13 -9 0 -30 -9 -45 -19 -16 -10 -36 -17 -45 -15
-29 6 -86 -29 -104 -64 -28 -57 -47 -72 -94 -72 -48 0 -87 -28 -134 -96 -26
-37 -28 -43 -14 -62 8 -11 11 -23 6 -26 -11 -6 -28 5 -35 24 -4 11 -7 10 -12
-7 -8 -24 -31 -37 -40 -23 -10 17 -44 11 -65 -10 -28 -28 -60 -26 -60 3 0 19
-5 22 -41 22 -28 0 -44 -6 -50 -18 -6 -9 -21 -17 -35 -17 -14 0 -39 -7 -54
-17 -26 -15 -27 -18 -14 -38 13 -19 12 -24 -3 -38 -27 -24 -31 -24 -47 -2 -22
28 -20 53 5 60 11 4 18 12 16 18 -5 17 -49 25 -75 13 -17 -7 -25 -7 -30 1 -8
13 -52 -18 -52 -35 0 -17 -56 -52 -66 -42 -6 6 -22 -4 -43 -25 -27 -28 -30
-36 -18 -41 9 -3 13 -12 10 -20 -3 -8 -9 -11 -14 -8 -5 3 -6 10 -3 16 4 6 1 9
-7 6 -7 -2 -17 -19 -21 -36 -6 -22 -15 -32 -28 -32 -36 0 -25 -45 17 -70 l37
-22 -31 -13 c-18 -8 -46 -29 -62 -47 -17 -18 -31 -27 -31 -19 0 11 -3 11 -15
1 -10 -8 -32 -11 -62 -7 -42 4 -105 -9 -156 -34 -9 -5 -29 -6 -43 -3 l-25 6 2
-69 c2 -73 -11 -109 -45 -119 -12 -4 -22 0 -28 10 -12 22 -96 23 -104 1 -4 -9
-19 -15 -41 -15 -25 0 -32 -3 -27 -12 5 -8 0 -7 -11 2 -14 11 -17 11 -11 1 7
-10 4 -12 -13 -6 -15 4 -27 -1 -43 -18 -32 -34 -68 -52 -68 -34 0 11 -10 12
-55 4 -30 -6 -55 -14 -55 -17 0 -4 21 -10 46 -13 25 -2 51 -10 57 -17 9 -10 9
-11 0 -6 -14 8 -37 -30 -29 -49 2 -7 -2 -16 -10 -19 -16 -6 -19 -53 -4 -91 8
-21 14 -24 34 -19 32 8 66 -3 66 -22 0 -8 4 -14 9 -14 5 0 12 23 16 52 9 65
50 112 89 102 16 -4 33 0 48 10 25 18 78 22 78 5 0 -5 5 -7 11 -3 6 3 35 8 64
10 50 4 55 2 74 -25 12 -16 21 -38 21 -48 0 -15 8 -19 40 -20 33 -2 40 1 40
17 0 10 5 22 10 25 6 3 10 15 10 26 0 23 9 24 36 5 17 -13 22 -13 42 0 19 13
26 13 39 2 13 -10 19 -8 37 15 12 15 27 27 34 27 6 0 9 7 6 15 -4 10 0 15 15
15 12 0 21 5 21 10 0 6 6 10 14 10 7 0 19 6 25 14 9 11 20 12 48 4 19 -5 44
-7 55 -5 11 3 21 0 24 -7 3 -7 17 -12 31 -10 14 1 34 -3 44 -9 15 -9 22 -8 38
10 11 11 17 24 13 28 -4 4 2 13 12 20 10 8 26 26 35 41 19 31 117 65 106 36
-3 -10 0 -12 10 -8 8 3 26 0 40 -6 19 -8 28 -8 40 2 23 19 41 -2 49 -56 6 -49
-1 -75 -15 -53 -6 11 -12 10 -27 -6 -13 -15 -17 -31 -14 -58 4 -37 -9 -50 -25
-24 -23 35 -42 40 -80 21 -21 -9 -53 -17 -70 -15 -18 1 -33 -3 -33 -9 0 -5 3
-11 8 -11 4 -1 20 -3 36 -5 43 -5 58 -24 18 -24 -34 0 -40 -8 -20 -28 8 -8 5
-14 -14 -21 -15 -5 -28 -21 -32 -36 -8 -33 4 -125 16 -125 6 0 8 -7 4 -15 -3
-9 0 -15 9 -15 24 0 17 -25 -10 -40 -14 -7 -25 -17 -25 -21 0 -4 -10 -5 -22
-1 -16 4 -20 2 -15 -10 4 -12 1 -14 -14 -11 -11 3 -19 0 -19 -6 0 -7 -5 -9
-11 -5 -8 4 -8 1 -1 -12 9 -18 27 -93 24 -104 0 -3 -4 -14 -8 -24 -5 -14 -4
-17 4 -12 7 4 12 2 12 -3 0 -6 -8 -11 -19 -11 -10 0 -24 -7 -31 -15 -7 -8 -18
-15 -26 -15 -7 0 -17 -7 -22 -17 -9 -15 -20 -17 -117 -21 -39 -2 -47 -6 -55
-27 -5 -14 -14 -25 -20 -25 -6 0 -18 -7 -26 -15 -35 -35 -125 3 -94 40 23 28
4 46 -47 45 -27 -1 -65 2 -85 6 -25 4 -43 2 -53 -6 -12 -10 -15 -10 -15 3 0
18 -30 30 -52 22 -9 -4 -23 1 -32 10 -10 10 -25 15 -37 12 -11 -3 -33 -1 -49
4 -20 8 -35 7 -51 -1 -12 -7 -34 -13 -48 -15 -14 -1 -33 -4 -41 -6 -15 -4 -18
12 -9 56 3 15 -1 20 -16 21 -11 0 -24 -3 -30 -7 -5 -4 -24 -10 -42 -14 -32 -6
-75 23 -379 261 -16 13 -19 34 -4 34 6 0 10 7 10 15 0 8 -7 15 -15 15 -8 0
-15 7 -15 15 0 8 9 15 20 15 25 0 47 34 56 87 3 23 13 44 20 47 8 3 14 11 14
18 0 7 16 30 35 51 53 58 45 72 -22 40 -24 -11 -37 -13 -42 -5 -6 11 -54 32
-72 32 -5 0 -9 -9 -9 -20 0 -11 -6 -20 -13 -20 -8 0 -20 -11 -27 -25 -8 -16
-22 -25 -37 -25 -13 0 -26 -7 -29 -15 -11 -28 -24 -15 -24 25 0 22 -4 40 -10
40 -5 0 -10 15 -10 33 0 20 -8 41 -18 51 -18 15 -20 15 -37 -4 -10 -11 -22
-17 -26 -14 -5 3 -14 -8 -21 -23 -23 -53 -78 -111 -111 -119 -37 -8 -56 -29
-57 -64 l-1 -25 -24 29 c-20 25 -32 30 -77 33 -68 3 -83 -6 -83 -54 0 -27 -4
-38 -15 -38 -16 0 -40 -40 -40 -66 0 -28 -24 -41 -54 -29 -14 5 -26 14 -26 19
0 5 -16 9 -35 8 -19 -1 -34 -6 -33 -11 0 -6 -4 -24 -10 -39 -7 -16 -12 -33
-12 -39 0 -6 -6 -6 -15 2 -11 9 -38 11 -93 8 -58 -4 -83 -2 -97 8 -35 26 -151
11 -140 -18 6 -15 -32 -34 -83 -43 -28 -5 -33 -3 -30 12 1 10 -1 24 -5 31 -6
8 -1 12 17 12 24 0 25 2 14 28 -6 15 -12 49 -14 75 -1 26 -8 55 -15 63 -9 11
-9 18 -1 26 17 17 15 26 -5 31 -15 4 -15 5 2 6 11 0 26 11 34 23 13 22 14 21
33 -16 10 -20 25 -39 32 -42 7 -3 12 -17 10 -32 -2 -15 -1 -20 2 -10 7 22 31
30 55 18 15 -8 26 -6 49 12 16 12 30 26 30 30 0 19 56 78 74 78 14 0 16 -3 8
-13 -18 -21 19 -38 60 -27 46 14 64 12 83 -6 14 -15 18 -15 40 0 14 9 25 23
25 30 0 9 7 12 20 9 14 -4 20 0 20 10 0 9 12 22 26 29 35 17 32 33 -8 35 -33
1 -67 34 -68 65 0 20 -19 34 -42 30 -10 -2 -18 2 -18 8 0 6 -5 8 -12 3 -7 -4
-20 -6 -29 -5 -8 1 -24 -7 -34 -18 -22 -24 -41 -26 -49 -4 -4 9 -13 13 -24 10
-9 -3 -33 -1 -52 4 -30 9 -37 7 -51 -9 -14 -17 -72 -38 -91 -33 -5 1 -8 -5 -8
-14 0 -8 4 -13 9 -10 4 3 16 -3 26 -14 18 -20 17 -20 -43 -14 -40 5 -62 3 -62
-3 0 -17 -51 -46 -62 -35 -6 6 0 12 16 16 17 4 26 13 26 26 0 21 -16 35 -24
21 -3 -5 -21 -5 -41 -1 -38 9 -40 8 -25 -21 8 -15 7 -19 -5 -19 -8 0 -15 5
-15 10 0 6 -9 10 -19 10 -10 0 -21 7 -25 15 -6 18 -29 8 -74 -33 -14 -12 -28
-20 -31 -16 -3 3 2 11 12 19 16 11 16 13 2 19 -10 3 -26 -4 -41 -19 -14 -14
-31 -25 -38 -25 -13 0 -36 -41 -36 -64 0 -14 -51 -29 -60 -18 -9 12 -49 32
-64 32 -8 0 -16 7 -20 15 -3 8 -14 15 -24 15 -11 0 -30 16 -43 34 -13 19 -34
40 -47 45 -26 12 -65 14 -75 4 -4 -3 -22 -8 -39 -10 -18 -2 -50 -5 -72 -8 -36
-4 -37 -3 -22 14 9 10 16 32 16 49 0 30 -2 31 -32 26 -18 -3 -49 -10 -68 -15
-20 -6 -49 -9 -65 -7 -29 3 -30 5 -32 61 -2 46 1 56 10 48 20 -16 37 22 42 96
3 42 10 72 21 84 15 16 15 19 -3 38 -11 12 -38 22 -71 27 -44 6 -52 4 -52 -10
0 -9 -4 -16 -10 -16 -15 0 -12 58 3 63 22 8 0 18 -41 19 -38 0 -40 2 -44 34
-3 23 0 34 9 34 7 0 13 5 13 10 0 6 -12 10 -27 10 -44 0 -72 11 -67 25 3 7 1
16 -4 19 -15 9 -44 -42 -37 -65 4 -12 1 -21 -9 -25 -9 -3 -16 -15 -16 -25 0
-10 -3 -19 -6 -19 -11 0 -49 23 -56 34 -5 7 -12 4 -22 -9 -47 -65 -43 -63 -75
-27 -39 45 -56 111 -33 128 14 10 14 17 3 55 -7 24 -15 49 -16 55 -2 6 -16 14
-32 17 -21 5 -32 1 -45 -15 -10 -11 -18 -16 -18 -12 -1 5 -9 -2 -20 -15 -17
-19 -21 -21 -26 -7 -3 9 -14 16 -25 16 -25 0 -48 56 -43 105 2 22 4 47 5 57 0
9 12 19 27 23 19 5 22 9 13 15 -10 5 -12 19 -7 43 6 32 5 35 -14 30 -20 -5
-40 -55 -40 -102 0 -21 -2 -22 -17 -10 -15 13 -16 12 -11 -9 4 -12 3 -20 -1
-17 -11 6 -35 -41 -27 -53 10 -17 -12 -24 -33 -10 -15 9 -17 16 -10 31 6 10 8
26 4 34 -3 9 0 20 7 24 10 7 10 13 1 27 -8 14 -8 23 -1 30 6 6 13 33 15 59 5
43 23 87 23 54 0 -8 6 -11 15 -7 9 3 19 -3 25 -14 13 -24 50 -27 50 -5 0 9
-11 27 -24 39 -37 38 -39 53 -5 68 29 13 33 22 30 65 -1 12 4 25 11 30 17 11
19 43 3 43 -20 0 -37 -27 -30 -50 5 -16 2 -20 -14 -20 -11 0 -23 -5 -26 -10
-5 -8 -11 -7 -21 1 -10 8 -12 15 -4 23 14 14 12 26 -5 26 -8 0 -15 -9 -15 -20
0 -12 -6 -20 -12 -19 -32 4 -44 -3 -56 -31 -8 -17 -20 -37 -28 -44 -8 -8 -15
-25 -17 -37 -2 -12 -14 -30 -26 -41 l-23 -18 25 0 c14 0 27 6 30 13 3 7 16 0
36 -21 25 -26 30 -36 21 -47 -6 -7 -20 -11 -31 -8 -12 4 -29 -2 -42 -15 -12
-11 -39 -23 -59 -27 -37 -7 -38 -8 -38 -52 0 -40 -2 -44 -20 -38 -13 4 -22 1
-26 -9 -3 -9 -9 -14 -14 -11 -4 2 -18 -7 -30 -20 -13 -14 -32 -25 -41 -25 -10
0 -25 -13 -34 -29 -8 -16 -24 -33 -36 -36 -16 -5 -20 -13 -16 -31 2 -13 0 -24
-4 -24 -5 0 -9 -9 -9 -21 0 -14 -11 -25 -37 -35 -21 -9 -49 -20 -63 -26 -27
-12 -65 -80 -57 -102 7 -17 -19 -30 -28 -15 -4 5 -27 7 -55 3 -51 -7 -69 2
-83 39 -4 10 -27 27 -51 38 -25 11 -48 24 -51 29 -4 6 -28 7 -58 4 -35 -4 -71
-1 -109 11 -32 9 -67 13 -78 10 -12 -4 -27 -1 -35 5 -10 8 -31 10 -65 5 -42
-6 -50 -4 -50 9 0 9 -9 21 -20 28 -11 7 -20 18 -20 24 0 7 -7 14 -15 18 -8 3
-15 13 -15 23 -1 26 -20 47 -57 62 -36 15 -42 31 -18 51 12 10 12 16 4 26 -6
8 -8 25 -5 39 8 30 -2 75 -17 75 -6 0 -18 7 -27 15 -53 48 -172 63 -227 29
-12 -8 -37 -14 -56 -14 -19 0 -37 -3 -41 -7 -4 -4 -24 -8 -45 -8 -26 -1 -51
-10 -75 -29 -39 -30 -46 -58 -21 -93 10 -14 12 -24 5 -28 -14 -9 -12 -82 2
-92 7 -4 25 -6 40 -4 16 1 28 -2 28 -8 0 -6 6 -11 14 -11 8 0 17 -12 21 -27
10 -41 25 -56 41 -42 17 14 18 49 2 49 -9 0 -9 3 -1 11 21 21 46 -16 40 -56
-3 -20 -1 -37 5 -41 6 -4 8 -23 4 -46 -6 -34 -4 -39 9 -34 32 12 55 -16 55
-66 0 -27 4 -48 9 -48 5 0 12 -13 16 -29 7 -32 50 -49 59 -24 3 8 10 11 16 8
5 -3 7 0 4 8 -4 12 1 13 27 8 36 -7 49 -28 25 -37 -23 -9 -20 -26 4 -19 11 4
20 2 20 -4 0 -6 9 -11 21 -11 15 0 19 -5 14 -19 -4 -13 3 -28 19 -45 13 -15
30 -41 37 -59 7 -17 19 -36 26 -42 7 -6 14 -38 15 -77 2 -42 8 -70 15 -72 20
-8 40 -68 38 -116 0 -26 5 -52 14 -62 17 -21 6 -23 -28 -4 -27 15 -65 10 -82
-10 -15 -18 -78 -18 -85 0 -4 10 -14 12 -40 6 -36 -8 -72 -39 -93 -78 -10 -19
-18 -22 -37 -18 -19 5 -30 1 -43 -16 -16 -19 -21 -20 -35 -9 -10 9 -16 10 -16
2 0 -6 5 -11 11 -11 5 0 8 -4 5 -9 -3 -5 -24 -7 -45 -4 -33 5 -40 2 -46 -16
-8 -26 -55 -30 -55 -5 0 12 -6 15 -24 10 -58 -14 -76 26 -26 59 16 11 30 23
30 26 0 15 -31 30 -71 35 -33 4 -56 17 -103 57 -33 29 -62 52 -66 52 -4 0 -23
16 -42 35 -65 64 -88 76 -146 75 -33 -1 -56 3 -63 12 -15 17 -37 17 -55 -2
-22 -22 -43 -18 -53 8 -7 19 -16 22 -67 23 -65 0 -115 17 -152 52 -29 26 -35
27 -66 7 -18 -12 -30 -13 -50 -6 -17 7 -26 7 -26 1 0 -6 5 -10 10 -10 12 0 13
-20 0 -40 -8 -12 -15 -11 -54 7 -25 13 -47 31 -51 44 -4 12 -29 43 -55 68 -26
25 -50 57 -53 70 -5 22 -4 23 34 17 45 -7 53 9 19 39 -11 10 -18 20 -16 24 2
3 -12 13 -30 22 -19 9 -34 13 -34 8 0 -17 -20 -9 -20 9 -1 29 -25 51 -66 60
-33 7 -39 12 -42 37 -2 17 2 33 10 40 8 5 18 22 22 38 3 15 11 27 16 27 5 0 7
7 4 15 -4 8 -9 13 -13 10 -4 -2 -25 2 -47 10 -53 19 -94 19 -94 0 0 -8 -6 -15
-14 -15 -8 0 -17 -8 -19 -17 -3 -10 -6 9 -8 42 -2 50 -4 42 -9 -45 -10 -135
-12 -619 -4 -696 6 -51 9 -60 27 -62 12 0 28 -10 37 -21 8 -11 34 -27 58 -37
23 -9 47 -25 53 -35 7 -14 16 -18 34 -13 14 3 25 2 25 -4 0 -10 37 -25 58 -23
6 1 12 -6 12 -15 0 -10 6 -14 14 -11 18 7 36 -12 36 -39 0 -14 -8 -25 -20 -29
-33 -11 -58 4 -66 38 -4 18 -9 26 -11 20 -3 -7 -15 -13 -28 -13 -13 0 -27 -4
-30 -10 -12 -20 -100 -11 -149 15 l-46 24 -1 -22 c0 -12 -2 -49 -4 -82 -5 -73
8 -740 13 -706 2 13 7 19 10 14 5 -8 21 -6 51 4 41 14 46 14 57 -2 11 -14 26
-17 90 -14 68 4 78 2 88 -16 14 -25 39 -45 48 -39 5 3 8 0 8 -6 0 -6 12 -15
26 -20 15 -6 22 -15 18 -21 -5 -9 6 -10 37 -5 42 6 46 4 67 -24 19 -25 20 -30
7 -30 -9 0 -24 -7 -32 -16 -19 -18 -73 -15 -143 9 -56 19 -136 39 -172 42 -15
1 -33 6 -40 12 -7 6 -36 10 -65 9 -48 -1 -52 1 -56 24 -2 14 -5 -294 -6 -685
-1 -390 -5 -1106 -7 -1590 -3 -484 -2 -925 1 -981 7 -100 7 -101 31 -96 13 2
27 8 30 13 3 5 18 -1 34 -13 17 -12 32 -19 36 -16 3 4 -3 9 -14 12 -14 5 -18
13 -14 31 2 15 0 25 -7 25 -6 0 -11 -4 -11 -10 0 -5 -9 -10 -20 -10 -11 0 -20
4 -20 10 0 5 7 6 17 3 11 -4 14 -3 9 5 -9 15 32 16 68 2 19 -7 26 -6 26 2 0 9
3 9 11 1 19 -19 3 -42 -23 -36 -21 4 -22 3 -6 -10 10 -8 18 -19 18 -24 0 -19
-57 -35 -111 -32 l-54 3 -3 -92 -3 -93 341 2 c196 0 338 5 334 10 -3 5 6 9 20
9 13 0 32 3 42 7 13 5 16 3 11 -10 -4 -11 -1 -17 8 -17 8 0 14 3 13 8 -2 4 2
7 7 7 6 0 9 -3 7 -7 -1 -5 931 -8 2072 -8 l2074 0 -4 108 c-3 72 -1 102 6 92
5 -8 10 -50 10 -92 0 -42 3 -83 6 -92 6 -15 217 -16 2290 -16 2193 0 2284 1
2284 18 0 10 -5 23 -12 30 -16 16 -65 15 -71 0 -4 -10 -8 -10 -15 1 -6 8 -11
9 -13 3 -3 -8 -17 -8 -42 -3 -22 5 -39 5 -43 0 -3 -5 -29 -7 -57 -3 -29 3 -77
7 -107 9 -73 3 -139 15 -146 26 -5 8 29 14 66 11 28 -2 43 7 33 21 -15 19 -22
57 -11 57 7 0 6 5 -1 14 -18 22 -31 75 -20 82 6 4 6 10 -1 19 -6 7 -8 20 -4
29 4 10 1 16 -7 16 -10 0 -10 3 1 15 11 10 46 14 140 16 l125 1 2 -27 c1 -15
7 -33 14 -41 6 -8 15 -29 18 -47 6 -30 11 -33 71 -48 36 -9 68 -15 71 -13 7 4
6 211 -1 217 -3 2 -14 9 -25 16 -18 10 -18 11 6 5 l27 -6 -2 384 -2 383 -42 6
c-24 3 -45 2 -48 -3 -3 -4 -32 -8 -65 -8 -47 0 -59 -3 -59 -16 0 -17 48 -249
106 -509 20 -88 37 -163 38 -167 0 -4 -379 -9 -844 -12 -465 -3 -1203 -12
-1640 -20 -437 -8 -1075 -18 -1417 -22 -591 -6 -623 -8 -623 -25 0 -10 5 -21
10 -24 6 -3 10 -11 10 -16 0 -6 -5 -7 -10 -4 -7 4 -9 -2 -6 -17 12 -55 10 -92
-5 -82 -6 4 -8 19 -5 37 6 29 5 29 -12 14 -20 -19 -32 -22 -32 -9 0 5 12 14
26 20 16 8 22 17 18 24 -5 7 -7 27 -5 45 l3 33 -369 0 c-202 0 -729 3 -1170 7
l-803 6 0 -21 c0 -12 -4 -22 -8 -22 -11 0 -14 66 -7 112 l7 38 62 0 c81 0 156
10 156 21 0 5 -50 9 -111 9 -100 0 -110 2 -105 18 10 36 29 292 22 299 -4 4
-48 6 -98 5 -117 -2 -152 14 -143 68 3 19 12 91 20 160 31 256 37 272 107 285
21 4 41 12 46 19 10 12 25 75 43 184 7 39 15 72 18 72 28 0 81 -24 81 -35 0
-8 5 -15 10 -15 6 0 10 5 10 11 0 5 19 -10 43 -34 23 -25 49 -47 57 -50 9 -3
10 -6 2 -6 -7 -1 2 -14 20 -31 18 -16 27 -30 21 -30 -18 0 -16 -20 2 -20 8 0
15 -4 15 -8 0 -11 68 -35 79 -28 5 3 11 -1 15 -9 8 -22 24 -18 28 6 2 12 13
26 26 30 20 8 22 5 22 -26 0 -18 5 -37 10 -40 6 -3 10 -14 9 -23 0 -14 -2 -13
-9 3 -7 16 -9 11 -9 -20 -1 -22 6 -52 14 -68 11 -22 12 -47 6 -122 -4 -53 -10
-97 -12 -99 -2 -2 -121 -7 -264 -11 -143 -3 -263 -9 -267 -11 -5 -3 -5 -10 -2
-16 7 -10 115 -9 824 12 173 5 468 12 654 16 l339 7 -6 -144 c-4 -79 -7 -188
-7 -241 0 -72 -4 -100 -15 -112 -17 -17 -20 -30 -5 -21 6 3 10 1 10 -5 0 -11
73 -3 77 9 2 3 45 5 95 3 113 -4 109 11 -5 18 l-82 5 4 240 c1 132 5 243 7
246 4 7 205 15 774 29 363 10 1049 34 1257 45 l102 5 5 -52 c9 -78 26 -364 26
-430 l0 -58 -172 0 c-95 0 -264 -3 -375 -7 -170 -5 -203 -9 -203 -21 0 -13 19
-14 138 -8 75 3 259 6 407 7 149 0 287 3 308 6 41 6 52 33 14 33 -23 0 -23 1
-39 262 -10 144 -16 263 -15 265 7 7 86 12 257 18 252 8 895 33 1005 40 50 2
225 9 390 15 165 6 395 15 510 20 116 6 237 10 271 10 l60 0 18 -97 c10 -54
35 -183 56 -288 25 -127 34 -191 26 -192 -6 -1 -85 -4 -176 -5 -156 -3 -165
-4 -168 -23 -3 -19 2 -20 179 -17 99 2 179 -1 176 -5 -3 -4 24 -6 59 -5 35 2
64 6 64 8 0 2 -27 139 -60 305 -33 165 -60 307 -60 315 0 9 12 14 35 14 31 0
35 -3 40 -33 l6 -32 107 8 c59 5 108 10 109 11 1 1 3 201 4 446 3 382 1 445
-12 446 -35 2 -39 5 -39 25 0 11 4 18 9 15 5 -4 12 8 16 25 5 23 9 28 16 18 6
-10 9 -3 10 21 0 19 2 47 3 63 2 33 -4 34 -34 2 -13 -14 -28 -25 -34 -25 -6 0
5 16 25 34 l37 34 7 1940 c3 1067 3 1967 -1 2001 -5 50 -10 61 -25 61 -10 0
-24 -8 -30 -19z m-6599 -1711 c12 -7 12 -12 2 -22 -16 -16 -15 -31 2 -25 8 3
20 -1 26 -8 7 -8 17 -12 23 -8 6 4 8 0 4 -9 -3 -9 5 -31 17 -49 20 -29 23 -43
18 -94 -3 -48 -1 -63 12 -74 20 -17 21 -61 1 -61 -8 0 -23 -9 -33 -21 l-19
-20 -37 21 c-21 11 -41 18 -45 15 -5 -2 -23 0 -42 5 -26 8 -42 6 -68 -6 -19
-9 -53 -18 -75 -19 -23 -2 -53 -7 -68 -10 -25 -7 -27 -4 -34 31 -4 23 -2 44 5
55 15 25 14 39 -4 39 -8 0 -15 -5 -15 -11 0 -5 -5 -7 -11 -4 -12 8 -8 95 5
111 6 6 20 8 33 6 27 -5 26 -3 13 -37 -9 -24 -8 -25 10 -15 11 6 20 18 20 26
0 15 48 86 63 92 4 2 7 16 7 31 0 15 9 36 19 45 18 16 22 16 50 2 28 -15 32
-15 63 3 39 23 39 23 58 11z m347 -954 c-4 -25 -1 -36 9 -40 8 -3 14 -1 14 4
0 6 7 10 15 10 9 0 12 -6 9 -15 -4 -8 -10 -12 -15 -9 -5 3 -9 1 -9 -4 0 -6 8
-13 17 -16 18 -7 35 11 27 29 -3 5 1 2 9 -7 8 -10 17 -18 21 -18 4 0 23 -15
41 -32 18 -18 46 -43 61 -56 16 -12 21 -20 12 -16 -26 9 -22 -3 10 -31 15 -13
21 -25 14 -25 -14 0 -7 -20 7 -20 11 0 10 33 -2 50 -6 8 3 2 19 -15 34 -35 57
-75 43 -75 -6 0 -7 -4 -4 -10 12 -19 23 -10 20 15 -1 14 -1 25 1 25 12 0 44
-43 43 -57 0 -14 -2 -13 -9 5 -11 26 -22 30 -18 6 2 -11 -5 -18 -19 -19 -12
-1 -20 2 -18 6 7 10 -17 25 -44 27 -27 1 -17 -13 14 -21 15 -3 13 -5 -8 -6
-17 -1 -26 -5 -22 -12 4 -6 13 -8 19 -6 7 3 19 1 27 -4 10 -6 10 -9 2 -9 -7 0
-13 -4 -13 -10 0 -5 7 -10 15 -10 8 0 15 7 15 15 0 8 4 15 10 15 5 0 7 -6 4
-14 -3 -8 -1 -17 4 -20 15 -9 43 4 36 16 -4 6 -10 5 -15 -3 -7 -11 -9 -10 -9
4 0 10 8 17 20 17 11 0 20 -7 20 -15 0 -8 5 -15 11 -15 5 0 8 4 4 9 -3 5 0 13
5 16 14 9 52 -24 43 -38 -3 -6 -10 -1 -14 11 -5 12 -14 22 -20 22 -8 0 -8 -4
1 -15 14 -17 16 -16 -30 -20 -19 -2 -40 -3 -45 -4 -16 -2 -16 -41 1 -48 8 -3
14 -10 14 -16 0 -6 -10 -1 -23 11 -13 12 -29 22 -35 22 -13 0 -13 1 -17 38 -3
30 -9 35 -41 35 -16 0 -21 2 -14 7 15 9 4 30 -16 30 -8 0 -14 10 -14 24 0 17
5 23 18 22 20 -1 23 25 3 32 -8 3 -11 0 -7 -6 3 -5 -1 -12 -9 -16 -8 -3 -17
-1 -20 4 -4 6 -2 10 3 10 16 0 8 93 -8 98 -13 5 -13 3 0 -13 13 -16 13 -18 0
-13 -8 2 -15 12 -15 21 0 9 -8 24 -18 34 -17 17 -18 17 -13 -9 4 -27 -17 -47
-29 -28 -4 6 -11 10 -17 10 -7 0 -6 -6 2 -15 20 -24 5 -18 -16 7 -10 12 -13
18 -6 14 16 -10 10 30 -7 47 -11 9 -14 9 -18 0 -3 -8 -15 -2 -33 17 -28 28
-28 29 -12 64 20 45 26 46 19 2z m1913 -226 c0 -33 3 -60 8 -60 29 1 52 15 53
34 2 20 2 20 6 -1 2 -13 11 -23 20 -23 8 0 13 -6 11 -12 -3 -8 -42 -18 -99
-25 -52 -7 -146 -19 -209 -27 -63 -8 -140 -18 -170 -21 -30 -3 -116 -14 -190
-24 -74 -10 -139 -15 -144 -10 -16 14 -16 59 -1 53 9 -4 12 0 8 14 -5 20 25
97 35 88 3 -3 0 -11 -5 -18 -15 -20 -25 -68 -14 -68 6 0 8 -8 5 -17 -5 -15 -4
-16 5 -3 6 8 11 26 12 40 1 20 2 21 6 5 2 -11 6 -30 9 -42 5 -26 44 -33 44 -8
0 8 5 15 11 15 5 0 7 -5 3 -11 -5 -9 13 -10 67 -5 41 3 83 8 94 10 11 2 30 4
43 5 18 1 22 7 24 39 l1 37 4 -38 c4 -32 7 -36 26 -33 12 3 61 10 110 17 48 6
87 16 87 21 0 7 5 6 13 -1 8 -6 16 -9 18 -6 3 2 21 5 41 7 30 2 36 6 36 22 0
12 0 30 1 41 1 17 3 18 12 5 7 -11 8 -5 3 23 -4 24 -2 37 5 37 7 0 11 -23 11
-60z m1470 -80 c0 -5 12 -10 28 -10 15 0 36 -7 46 -15 11 -8 30 -15 43 -15 33
0 28 -14 -16 -45 -26 -17 -54 -27 -82 -28 -46 -2 -66 -24 -30 -34 22 -6 28
-19 11 -25 -6 -1 16 -4 47 -4 128 -3 168 -8 168 -24 0 -8 -6 -14 -13 -12 -8 1
-11 -2 -7 -8 8 -14 38 -13 53 2 8 8 15 8 27 -2 8 -7 24 -10 35 -7 11 3 20 1
20 -3 0 -5 8 -11 18 -13 12 -3 10 -5 -8 -7 -14 -1 -88 -9 -165 -18 l-140 -17
1 -40 c0 -22 4 -86 9 -142 l8 -103 -54 -1 c-30 0 -63 -2 -74 -4 -11 -1 -41 -5
-67 -9 l-46 -5 -7 107 c-3 59 -8 123 -11 143 l-5 35 -112 -13 c-254 -31 -462
-50 -467 -43 -3 5 -23 10 -45 13 -33 3 -29 4 18 5 31 1 65 6 75 11 9 5 42 21
72 36 30 16 63 36 73 47 10 10 24 18 32 18 28 0 95 32 95 46 0 8 -6 14 -12 14
-10 0 -9 3 1 9 9 6 -16 11 -70 16 -77 7 -82 9 -56 20 16 6 33 18 38 26 7 11
10 9 15 -8 7 -27 13 -28 40 -8 10 8 31 15 46 15 27 0 36 7 61 43 8 12 28 18
65 20 30 2 57 8 61 15 4 6 28 13 54 16 38 3 49 1 57 -14 21 -38 80 -33 123 11
19 20 47 25 47 9z m-1447 -37 c-5 -15 -3 -16 8 -5 23 22 30 13 7 -10 -13 -13
-26 -22 -30 -20 -5 1 -7 -2 -5 -6 2 -10 -85 -133 -91 -128 -4 5 18 45 54 100
14 21 22 36 17 33 -5 -3 -28 -34 -52 -69 -26 -38 -50 -64 -61 -64 -11 0 -16 6
-13 16 3 10 0 9 -11 -4 -9 -11 -19 -17 -22 -13 -4 4 -14 1 -22 -6 -13 -10 -14
-9 -3 12 8 14 16 19 20 13 3 -6 19 8 34 31 l29 42 -31 -35 c-36 -41 -42 -31
-8 14 35 46 43 65 13 31 -14 -16 -25 -26 -26 -22 0 14 42 69 48 63 3 -4 14 2
25 11 19 18 20 17 8 -7 l-12 -25 19 22 c18 21 46 24 72 8 5 -3 14 4 20 15 13
25 22 26 13 3z m-1509 -108 c-4 -10 4 -13 35 -10 22 2 44 5 48 8 5 3 15 1 23
-5 12 -8 12 -9 -2 -4 -10 3 -20 2 -22 -3 -3 -4 -21 -8 -41 -9 -20 -1 -41 -5
-47 -8 -6 -4 -8 -3 -5 2 6 11 -9 41 -17 34 -2 -3 -2 -17 1 -31 4 -21 10 -26
29 -25 13 0 24 4 24 7 0 3 12 6 28 6 15 1 42 4 59 7 18 3 34 2 37 -2 2 -4 -3
-8 -12 -9 -9 0 -37 -4 -62 -8 -25 -4 -53 -7 -63 -7 -15 1 -16 -2 -6 -14 7 -8
19 -12 28 -9 9 4 32 8 51 10 19 2 48 6 65 10 16 3 27 4 24 0 -6 -6 -44 -16
-67 -17 -7 -1 -11 -6 -9 -12 5 -13 44 -10 75 6 19 10 24 8 36 -8 16 -22 3 -46
-23 -43 -9 1 -24 -1 -34 -6 -14 -6 -15 -10 -6 -21 10 -12 17 -11 47 6 27 16
37 18 46 9 8 -9 8 -10 -1 -5 -7 4 -13 2 -13 -3 0 -6 -6 -11 -13 -11 -7 0 -32
-9 -54 -20 -23 -11 -50 -17 -60 -14 -13 4 -11 0 7 -16 14 -13 26 -17 28 -11 2
6 8 9 13 5 5 -3 9 -1 9 5 0 6 7 7 17 4 11 -4 14 -3 9 5 -5 8 -2 10 9 5 13 -4
14 -8 4 -14 -21 -13 -3 -22 20 -10 12 7 22 7 26 1 9 -14 -48 -40 -66 -29 -12
7 -12 9 0 9 10 0 12 3 5 10 -7 7 -20 6 -40 -4 -35 -18 -55 -16 -78 6 -12 12
-13 18 -3 21 13 5 -33 55 -68 72 -11 6 -20 20 -20 30 0 21 -35 63 -70 84 -19
11 -19 12 3 6 13 -4 22 -2 22 5 0 6 5 8 11 4 8 -5 8 -8 0 -13 -8 -5 -5 -14 9
-26 21 -19 21 -19 14 23 -5 35 -4 42 10 42 11 0 14 4 10 13 -6 9 -3 8 8 -1 9
-8 14 -20 12 -27z m-407 -208 c-4 -43 -2 -54 9 -54 9 0 13 6 9 16 -3 9 5 4 17
-10 13 -15 32 -31 43 -37 19 -10 18 -11 -8 -23 -30 -14 -33 -19 -15 -37 7 -7
8 -12 4 -12 -5 0 -3 -7 4 -15 7 -8 27 -15 46 -15 20 0 37 -6 42 -16 5 -9 24
-19 43 -24 l34 -8 -40 -2 -40 -3 35 -6 c25 -5 -9 -11 -124 -24 -88 -10 -162
-20 -165 -22 -2 -3 -8 -55 -13 -117 -5 -62 -10 -118 -12 -124 -3 -6 -40 -14
-85 -18 -44 -3 -88 -9 -97 -13 -13 -5 -15 1 -10 38 3 24 15 123 26 219 29 260
37 318 39 283 0 -17 5 -34 10 -37 4 -3 6 7 3 22 -5 30 5 25 22 -10 6 -13 19
-24 28 -26 20 -4 78 56 78 81 0 9 4 17 9 17 5 0 8 -6 7 -12 -1 -14 5 -18 29
-18 8 0 15 8 16 18 1 11 4 8 8 -8 4 -14 15 -26 24 -28 14 -3 17 4 17 37 0 23
3 41 6 41 4 0 4 -24 1 -53z m2447 -88 c15 46 27 4 29 -105 l2 -109 -100 -7
c-55 -4 -108 -9 -118 -12 -9 -2 -15 0 -11 5 3 5 -2 9 -10 9 -26 0 -29 21 -7
44 12 12 21 28 21 34 0 7 7 12 15 12 18 0 65 29 65 40 0 15 58 70 74 70 10 0
16 9 17 23 1 21 1 21 8 -3 l7 -25 8 24z m2437 -54 c13 -13 30 -25 37 -25 6 0
12 -12 13 -27 l1 -28 7 25 c8 26 14 -1 64 -285 l24 -129 44 3 c24 1 45 4 46 4
1 1 -3 36 -8 77 -21 183 -16 182 22 -3 26 -125 38 -202 32 -208 -5 -5 -55 -12
-111 -16 -112 -7 -132 -17 -27 -14 58 2 64 0 59 -16 -5 -15 -4 -15 5 -3 5 8
13 11 17 7 4 -4 2 -13 -4 -19 -14 -14 -16 -72 -3 -64 5 4 6 -4 3 -16 -5 -19
-7 -20 -10 -5 -3 15 -7 16 -18 6 -12 -10 -13 -9 -7 7 6 17 5 17 -11 5 -13 -11
-20 -11 -28 -3 -9 9 -7 12 8 12 35 0 43 13 34 50 -7 30 -8 32 -9 9 -1 -21 -10
-32 -43 -49 -33 -17 -43 -19 -50 -8 -7 10 -11 9 -19 -4 -7 -14 -23 -18 -64
-18 -34 0 -55 -4 -55 -11 0 -6 -7 -8 -16 -5 -9 4 -22 2 -28 -3 -6 -4 -57 -11
-113 -15 -89 -6 -103 -5 -103 9 0 11 -12 15 -50 15 -27 0 -50 5 -50 10 0 14
-37 12 -43 -2 -4 -10 -7 -10 -15 0 -6 10 -37 11 -128 7 -225 -10 -325 -16
-397 -26 -39 -6 -129 -10 -199 -10 -105 0 -129 -3 -136 -16 -7 -11 -11 -12
-16 -4 -4 6 -15 11 -24 10 -14 0 -13 -2 3 -9 25 -11 8 -12 -35 -4 -23 5 -28 9
-18 16 8 6 -1 7 -27 4 -22 -3 -94 -10 -160 -16 -66 -5 -131 -12 -146 -15 -14
-3 -72 -7 -129 -9 -68 -2 -105 -8 -110 -16 -5 -9 -23 -11 -55 -8 -26 3 -72 -1
-103 -9 -32 -7 -77 -16 -102 -18 -77 -7 -115 -15 -118 -25 -2 -6 -8 -10 -14
-10 -6 0 -7 7 -4 16 7 19 -13 8 -31 -17 -8 -10 -21 -15 -33 -12 -16 4 -20 0
-20 -20 0 -16 6 -27 18 -30 9 -2 -32 -4 -93 -4 -60 0 -128 -3 -150 -7 -22 -5
-60 -10 -85 -12 -25 -2 -65 -6 -90 -9 -121 -13 -252 -17 -246 -6 4 6 2 9 -7 6
-11 -5 -86 44 -125 82 -7 7 -26 20 -43 30 -29 17 -30 20 -27 78 3 51 6 60 23
63 68 10 62 -9 68 214 6 207 9 243 19 253 9 9 137 24 428 50 30 3 78 8 105 10
49 5 238 23 690 65 121 11 234 23 251 25 l32 5 7 -127 c4 -71 11 -173 15 -228
11 -120 11 -119 -92 -128 -93 -8 -548 -43 -738 -57 -80 -6 -224 -18 -320 -25
-96 -8 -217 -16 -267 -17 -51 -2 -93 -6 -93 -10 0 -13 24 -13 158 -2 186 16
607 48 1067 79 127 9 244 20 262 25 21 5 33 4 35 -2 5 -14 78 -1 78 13 0 6 4
8 9 4 6 -3 101 2 213 10 112 9 293 22 403 30 370 27 609 45 839 65 126 11 231
20 233 20 2 0 2 4 -1 8 -2 4 -96 0 -208 -9 -412 -34 -727 -59 -873 -70 -82 -5
-248 -18 -367 -28 -119 -9 -225 -14 -236 -10 -16 6 -19 27 -30 200 -7 107 -12
210 -12 230 l0 36 128 11 c70 6 253 23 407 37 154 14 420 38 590 54 171 16
347 29 391 30 75 1 84 -1 105 -24z m-7698 -252 c17 -3 32 -14 37 -29 8 -21 59
-44 98 -44 7 0 29 -7 50 -16 35 -14 36 -16 18 -29 -10 -8 -23 -12 -28 -9 -41
25 -66 -72 -28 -108 25 -24 25 -38 0 -38 -11 0 -20 -6 -20 -13 0 -7 -10 -14
-22 -15 -16 -1 -37 13 -65 44 -36 39 -47 45 -69 40 -22 -6 -25 -4 -19 13 5 15
2 18 -13 14 -11 -2 -23 0 -26 6 -15 23 -24 10 -15 -21 12 -42 11 -44 -3 -30
-7 7 -22 12 -35 12 -17 0 -23 6 -23 23 0 12 -4 28 -9 36 -7 11 -11 10 -19 -5
-10 -18 -13 -17 -41 14 -21 22 -39 32 -60 32 -17 0 -46 8 -66 17 -32 15 -35
20 -35 60 l0 44 48 -5 c26 -2 72 -7 102 -11 42 -5 66 -2 105 14 47 18 62 19
138 4z m3425 -120 c-13 -3 -18 -15 -18 -42 0 -30 6 -42 30 -60 17 -12 28 -25
26 -30 -3 -4 -6 -72 -7 -152 -1 -133 0 -144 17 -147 33 -4 43 12 51 88 l8 75
28 -56 c15 -31 27 -68 27 -83 0 -16 4 -25 10 -21 6 3 10 1 10 -4 0 -6 -4 -11
-9 -11 -14 0 -20 -38 -7 -44 6 -2 3 -5 -6 -5 -22 -1 -22 -2 -3 -48 11 -25 12
-40 5 -47 -5 -5 -10 -18 -10 -28 0 -15 8 -18 45 -18 48 0 96 -17 130 -44 20
-17 20 -17 -2 -7 -26 13 -46 14 -39 3 2 -4 -30 -9 -72 -11 -42 -2 -93 -4 -112
-5 -297 -22 -430 -27 -505 -21 -49 3 -98 7 -107 8 -10 1 -18 5 -18 9 0 5 -25
6 -56 2 -38 -4 -60 -2 -71 8 -12 10 -17 10 -20 1 -3 -9 -12 -9 -30 -2 -15 5
-33 9 -42 8 -32 -3 -50 1 -64 16 -9 8 -27 13 -46 10 -17 -2 -31 1 -31 6 0 5
12 10 28 10 24 2 25 2 4 6 -16 3 -22 10 -18 19 3 9 1 12 -4 9 -6 -3 -10 -13
-10 -21 0 -8 -4 -14 -9 -14 -5 0 -13 -9 -16 -20 -6 -20 -35 -28 -35 -10 0 6
-11 10 -25 10 -14 0 -25 -4 -25 -9 0 -6 -12 -6 -32 0 -18 5 -41 6 -50 3 -10
-3 -18 -1 -18 4 0 10 10 11 105 14 39 1 54 3 33 6 -21 2 -38 8 -38 13 0 6 -6
6 -18 0 -10 -5 -24 -6 -31 -1 -17 10 22 19 95 22 28 1 60 7 70 15 10 7 14 13
8 13 -5 0 -3 4 4 9 7 4 19 26 27 47 16 49 -4 45 460 74 337 21 383 25 374 35
-5 4 -328 -16 -539 -34 -108 -9 -215 -14 -285 -12 -23 1 -27 4 -15 11 9 6 10
10 3 10 -6 0 -13 10 -15 23 -3 22 -4 22 -173 20 -93 -1 -187 -4 -208 -8 l-39
-5 6 67 c4 38 12 108 18 156 14 101 0 91 153 106 599 60 1179 104 1103 84z
m-2513 -189 l44 3 -14 -26 c-7 -14 -30 -48 -49 -76 -20 -27 -36 -56 -36 -64 0
-8 -8 -20 -17 -28 -13 -10 -15 -16 -5 -19 21 -9 13 -22 -19 -33 -46 -16 -69
-14 -69 7 -1 12 -5 9 -16 -10 -8 -16 -19 -28 -25 -28 -6 0 -7 5 -4 10 3 6 1
10 -4 10 -6 0 -11 8 -11 18 -1 15 -2 15 -17 -3 -15 -19 -15 -19 -9 13 4 22 2
32 -7 32 -6 1 -1 8 13 16 14 8 17 13 8 10 -11 -3 -19 2 -23 15 -5 16 -10 17
-27 8 -15 -8 -23 -8 -32 1 -8 8 -7 10 5 5 10 -4 20 -2 24 4 3 6 14 11 25 11
10 0 21 7 24 16 5 13 2 15 -14 11 -14 -3 -20 0 -20 11 0 14 -15 8 -15 -6 0 -4
-4 -13 -9 -20 -6 -11 -11 -11 -24 0 -9 7 -13 8 -9 2 4 -7 -2 -14 -14 -17 l-21
-6 21 23 c12 13 34 29 49 37 15 7 34 18 42 25 8 6 44 19 79 28 36 8 69 20 74
25 6 6 19 6 34 0 13 -5 44 -7 68 -5z m6235 -466 c0 -13 88 -9 96 4 8 12 209 6
474 -13 74 -5 240 -12 369 -16 235 -5 300 -15 302 -46 1 -6 4 -1 8 13 5 18 18
-34 44 -175 21 -110 42 -220 48 -244 5 -24 8 -45 6 -47 -2 -2 -154 -11 -338
-19 -184 -9 -410 -19 -504 -24 -158 -7 -242 -2 -150 9 27 3 41 10 43 22 3 15
-6 16 -80 13 -386 -19 -404 -19 -428 3 -20 19 -21 22 -7 28 9 3 14 10 11 15
-3 5 18 9 47 9 l52 0 -6 38 c-3 20 -11 93 -17 162 -17 189 -8 173 -93 166 -40
-3 -137 -8 -217 -11 -133 -5 -432 -24 -469 -30 -11 -1 -15 -12 -14 -31 1 -16
10 -120 19 -232 9 -111 15 -204 13 -207 -3 -2 -65 -7 -140 -11 l-136 -7 -6 69
c-4 38 -10 140 -13 226 -4 86 -10 162 -14 169 -6 9 -47 9 -192 0 -100 -6 -228
-14 -283 -16 -55 -2 -132 -7 -171 -11 l-72 -6 4 -57 c2 -31 7 -109 10 -173 l6
-118 39 0 c21 0 39 4 39 8 0 5 26 6 59 4 48 -3 59 -1 65 13 5 15 4 16 -9 5 -9
-7 -18 -10 -22 -6 -10 10 3 18 31 20 19 1 26 6 25 21 0 11 -3 15 -5 9 -3 -8
-19 -9 -47 -3 -40 7 -63 -3 -51 -22 2 -4 0 -10 -5 -14 -6 -3 -8 5 -5 20 3 19
0 25 -13 25 -37 0 -46 15 -30 47 12 22 22 29 44 28 15 -1 32 1 37 3 4 3 31 5
58 7 l50 2 -5 -41 c-2 -23 -8 -52 -12 -66 -5 -19 -4 -22 4 -10 9 12 11 10 11
-12 0 -26 3 -28 40 -28 l40 0 0 65 c0 36 2 65 4 65 2 0 20 -7 39 -15 44 -18
47 -18 47 -2 0 8 7 14 14 14 11 0 12 -5 6 -18 -7 -12 -5 -21 5 -29 13 -11 15
-7 16 26 1 38 1 38 9 9 4 -16 15 -43 24 -60 11 -20 16 -50 15 -92 l-2 -63 -71
1 c-39 1 -63 3 -53 6 20 5 22 35 6 82 -9 27 -13 29 -23 17 -7 -10 -31 -16 -63
-18 -29 -2 -53 -6 -53 -10 0 -4 29 -5 65 -1 46 4 65 2 65 -6 0 -6 -6 -11 -12
-11 -10 0 -9 -3 1 -9 8 -5 -40 -11 -125 -15 -279 -13 -335 -18 -331 -30 2 -6
21 -13 43 -16 61 -8 28 -17 -71 -18 -115 -3 -650 -21 -777 -27 -59 -2 -98 0
-98 5 0 6 13 10 29 10 25 0 31 5 36 31 4 17 3 35 -2 40 -4 4 -38 9 -75 10
l-66 2 5 56 c3 36 0 70 -10 96 -8 22 -23 63 -33 90 -13 35 -18 68 -15 105 3
44 6 50 12 30 4 -16 7 -19 8 -7 1 13 10 17 39 19 20 0 55 2 77 3 50 2 123 15
155 28 8 3 47 11 85 17 39 7 88 18 110 26 28 10 50 11 72 5 23 -7 33 -6 36 2
2 8 47 13 138 14 74 2 141 5 149 9 27 10 474 15 534 6 64 -10 126 0 126 21 0
8 3 7 9 -2 8 -12 18 -12 72 1 35 9 71 16 79 17 302 20 646 26 685 11 21 -8 30
-8 35 1 5 6 16 8 29 4 12 -4 27 -2 34 3 7 5 46 13 87 17 41 4 84 9 95 11 11 3
60 6 108 8 48 2 90 5 92 8 7 7 45 4 45 -4z m1460 -266 c16 -86 33 -177 39
-202 14 -61 15 -60 -18 -60 -26 0 -29 3 -34 48 -4 26 -16 99 -28 162 -12 63
-23 145 -25 182 l-3 67 20 -20 c15 -15 27 -60 49 -177z m-5079 78 c200 -1 241
-4 324 -18 33 -6 103 -10 156 -10 52 1 101 -2 107 -6 8 -4 12 0 13 11 0 16 1
16 9 -2 5 -11 9 -102 9 -202 l1 -183 40 0 40 0 0 82 c0 98 9 97 18 -4 5 -45
11 -73 19 -73 6 0 15 -3 19 -7 4 -5 29 -8 55 -8 38 0 51 -4 59 -20 9 -17 8
-20 -7 -20 -10 0 -105 -3 -210 -7 -138 -4 -193 -3 -193 5 0 6 24 13 58 15 l57
3 -60 0 c-50 -1 -60 -4 -63 -20 -5 -22 13 -36 46 -36 13 0 21 -4 18 -9 -3 -4
-180 -12 -393 -16 -214 -4 -445 -8 -515 -10 l-128 -3 0 30 c0 35 22 60 44 52
9 -3 16 -1 16 5 0 21 18 11 24 -14 5 -18 13 -25 29 -24 21 0 21 1 2 9 -17 7
-17 9 -2 9 9 1 17 7 17 15 0 8 4 17 10 21 5 3 7 -9 5 -30 -3 -19 -1 -35 3 -35
9 0 32 255 32 344 l0 48 -92 -6 c-230 -15 -340 -18 -385 -11 -45 7 -47 8 -23
18 14 6 28 16 32 21 3 5 32 8 63 7 70 -3 147 8 139 20 -3 5 2 6 10 3 10 -4 16
-1 16 7 0 11 3 11 10 -1 6 -9 10 -10 10 -3 0 10 44 26 75 28 6 0 15 4 21 7 6
4 58 10 115 13 71 4 109 11 118 20 13 13 18 13 36 1 16 -11 66 -15 196 -16z
m-3796 -96 c28 -3 74 -10 104 -15 30 -5 68 -9 85 -9 37 0 106 -18 106 -28 0
-4 -21 -6 -46 -5 -55 2 -48 -12 11 -25 25 -5 40 -14 40 -22 0 -18 -19 -17
-220 16 -189 30 -197 32 -190 44 3 6 1 10 -4 10 -6 0 -11 5 -11 12 0 6 7 4 18
-5 23 -21 39 -22 23 -3 -10 12 -5 14 31 10 31 -3 37 -2 23 5 -11 4 -24 6 -28
4 -4 -3 -14 1 -22 7 -10 8 -15 9 -15 2 0 -6 -7 -9 -15 -6 -31 12 -15 27 23 20
20 -4 60 -9 87 -12z m7241 -202 c-3 -5 4 -12 16 -15 32 -9 13 -21 -30 -20 -26
0 -29 -1 -9 -4 58 -9 22 -21 -85 -27 -385 -21 -378 -21 -378 3 0 11 6 21 13
21 8 0 7 3 -3 10 -8 5 -12 12 -8 15 6 6 191 17 382 23 68 2 106 0 102 -6z
m-5288 -276 c51 -36 102 -71 115 -77 12 -7 49 -32 81 -56 59 -43 61 -43 144
-43 l84 0 -6 -37 c-3 -21 -17 -155 -31 -298 -14 -143 -27 -268 -29 -277 -5
-24 2 -27 49 -19 40 7 40 6 44 64 1 11 9 17 27 17 17 0 24 4 21 13 -23 63 -25
62 57 51 31 -5 43 -10 34 -15 -10 -7 -9 -9 5 -9 11 0 17 -8 17 -24 0 -13 6
-27 13 -30 6 -3 -1 -4 -18 -1 -27 5 -28 4 -10 -7 27 -17 48 -19 56 -6 4 6 18
8 33 4 15 -4 24 -11 21 -15 -3 -5 0 -11 7 -13 8 -3 6 -7 -5 -11 -12 -5 -17 -1
-17 13 0 11 -7 20 -15 20 -8 0 -14 -3 -14 -7 3 -21 -2 -43 -11 -43 -5 0 -7 7
-4 15 7 18 -31 21 -42 4 -3 -6 -15 -9 -25 -6 -24 6 -25 -10 -1 -17 9 -3 50 -8
90 -10 54 -4 71 -2 65 7 -5 9 -3 9 8 2 8 -6 28 -12 44 -14 41 -4 43 -8 9 -22
-36 -15 -64 -18 -64 -8 0 5 -10 5 -22 1 -35 -12 -207 -14 -263 -3 -44 9 -53 8
-78 -10 -35 -26 -146 -43 -182 -29 -15 6 -63 11 -108 12 -45 0 -66 3 -47 4 59
6 171 27 175 33 3 6 -104 84 -343 250 l-77 53 -536 -7 c-489 -7 -536 -6 -542
9 -4 9 -12 16 -18 16 -8 0 -8 -4 1 -15 11 -13 -19 -15 -257 -15 -149 1 -273 3
-276 6 -3 3 0 22 5 42 6 20 36 147 67 282 l57 245 210 6 c322 10 926 28 1154
35 113 3 209 9 214 14 11 11 21 6 134 -74z m-232 -624 c14 -11 35 -75 25 -81
-14 -10 -9 -41 7 -41 13 0 13 -3 -1 -18 -10 -10 -14 -21 -11 -25 3 -3 3 -14 0
-25 -6 -19 -29 -31 -71 -37 -39 -6 -135 -15 -135 -12 0 1 7 37 15 80 8 43 15
96 15 116 0 21 3 41 6 44 9 8 138 7 150 -1z m-1406 -31 c0 -10 9 -30 20 -44
18 -23 29 -49 14 -34 -11 10 -42 -37 -46 -68 -3 -29 -5 -30 -53 -32 -27 0 -63
-6 -78 -12 -16 -6 -42 -11 -59 -11 -27 0 -30 3 -24 25 13 51 26 76 37 69 8 -4
7 -9 -2 -15 -7 -4 -10 -11 -6 -15 7 -7 36 23 37 38 0 3 -8 9 -17 11 -13 3 -12
5 5 6 13 0 20 5 17 11 -4 6 -1 26 5 45 10 31 15 34 58 38 26 2 57 4 70 5 15 1
22 -3 22 -17z m6269 -110 c1 -31 -1 -33 -24 -27 -18 5 -25 2 -25 -8 0 -9 -10
-24 -22 -36 l-22 -20 22 0 c18 0 21 -5 20 -33 -1 -33 -2 -33 -43 -32 -23 1
-48 6 -55 10 -8 5 -11 4 -6 -3 10 -17 -9 -22 -37 -9 -34 16 -37 23 -44 134
l-6 93 66 0 c37 0 67 4 67 8 0 4 15 6 34 4 20 -2 37 1 42 9 10 17 32 -43 33
-90z m-2402 65 c3 -3 19 -6 34 -6 34 0 37 -5 43 -66 6 -61 -3 -78 -38 -72 -15
3 -29 1 -32 -4 -7 -11 -34 10 -34 27 0 8 4 15 10 17 5 2 6 9 1 17 -5 8 -14 10
-22 6 -7 -5 -24 -9 -38 -10 -14 -1 -34 -5 -43 -9 -14 -7 -16 -1 -13 39 3 50 9
61 39 67 29 5 86 2 93 -6z"/>
<path d="M7530 4326 c-3 -2 -45 -7 -95 -10 -114 -9 -309 -26 -311 -29 -1 -1 2
-22 6 -47 5 -25 9 -69 10 -99 l0 -54 108 6 c59 4 162 12 230 19 l123 11 -7 71
c-3 39 -7 85 -9 101 -2 23 -8 31 -26 33 -14 2 -27 1 -29 -2z"/>
<path d="M5740 4165 c-88 -9 -224 -23 -258 -25 -3 0 10 -184 13 -188 4 -4 386
27 394 32 3 2 6 19 5 38 -1 18 -2 61 -2 96 -2 52 -5 62 -19 61 -10 -1 -70 -7
-133 -14z"/>
<path d="M3310 3954 c-8 -1 -58 -6 -112 -9 l-96 -7 -4 -86 c-2 -48 -3 -88 -3
-90 3 -4 314 24 319 29 2 2 6 41 8 87 l5 82 -51 -1 c-28 -1 -58 -3 -66 -5z"/>
<path d="M2124 2518 c0 -18 -4 -60 -8 -94 l-8 -60 76 -55 c43 -30 97 -69 122
-88 24 -19 46 -32 48 -30 2 2 8 46 13 97 7 79 7 95 -7 106 -18 16 -228 156
-233 156 -2 0 -3 -15 -3 -32z"/>
<path d="M342 7039 c-12 -5 -22 -13 -22 -18 0 -5 -9 -7 -20 -4 -31 8 -25 -22
10 -47 17 -12 30 -28 30 -37 0 -18 39 -52 59 -53 31 0 101 42 101 61 0 10 -6
19 -14 19 -8 0 -16 7 -20 15 -3 8 -15 15 -26 15 -12 0 -25 10 -31 24 -13 28
-36 36 -67 25z"/>
<path d="M7599 2686 c-2 -3 -74 -6 -158 -7 l-153 -2 6 -101 c11 -156 -22 -140
265 -132 135 4 247 9 249 11 2 2 -2 55 -9 119 l-13 116 -91 0 c-51 0 -94 -2
-96 -4z"/>
<path d="M5612 2612 l-93 -3 3 -107 3 -107 125 -3 c69 -2 167 0 218 3 l92 7 0
110 0 110 -127 -4 c-71 -2 -170 -4 -221 -6z"/>
<path d="M2980 2528 c0 -18 -3 -63 -7 -101 l-6 -67 174 2 174 3 1 83 c1 46 4
86 8 89 19 19 -10 23 -169 23 l-175 0 0 -32z"/>
<path d="M7520 2278 c-574 -16 -661 -20 -657 -32 2 -6 23 -11 48 -10 653 9
975 18 981 28 6 8 8 7 8 -1 0 -19 18 -16 23 5 4 16 5 16 6 0 1 -22 19 -24 27
-3 9 23 152 21 169 -1 11 -15 12 -15 18 5 l5 22 -176 -3 c-97 -1 -301 -6 -452
-10z"/>
<path d="M3020 2205 c0 -14 36 -15 289 -15 242 1 290 3 295 16 5 12 -37 14
-289 14 -258 0 -295 -2 -295 -15z"/>
</g>
</svg>
